<mxfile host="app.diagrams.net" modified="2023-10-13T02:27:31.543Z" agent="Mozilla/5.0 (Windows NT 10.0; Win64; x64) AppleWebKit/537.36 (KHTML, like Gecko) Chrome/117.0.0.0 Safari/537.36" version="21.7.4" etag="EfjMaxm-VYL0JYImU1pN" type="github">
  <diagram name="第 1 页" id="Wvn9BvHFgJdBunSmtoFk">
    <mxGraphModel>
      <root>
        <mxCell id="0" />
        <mxCell id="1" parent="0" />
      </root>
    </mxGraphModel>
  </diagram>
</mxfile>
